<svg
  display="none"
  xmlns="http://www.w3.org/2000/svg"
>
  <symbol id="mail" viewBox="0 0 25 24">
    <g clip-path="url(#clip0_288_75)">
      <path
        d="M20.7334 4H4.7334C3.6334 4 2.7434 4.9 2.7434 6L2.7334 18C2.7334 19.1 3.6334 20 4.7334 20H20.7334C21.8334 20 22.7334 19.1 22.7334 18V6C22.7334 4.9 21.8334 4 20.7334 4ZM20.7334 8L12.7334 13L4.7334 8V6L12.7334 11L20.7334 6V8Z"
        fill="white" />
    </g>
    <defs>
      <clipPath id="clip0_288_75">
        <rect width="24" height="24" fill="white" transform="translate(0.733398)" />
      </clipPath>
    </defs>
  </symbol>

  <symbol id="phone" viewBox="0 0 25 24">
    <g clip-path="url(#clip0_288_82)">
      <path
        d="M20.7434 15.38C19.5134 15.38 18.3234 15.18 17.2134 14.82C16.8634 14.7 16.4734 14.79 16.2034 15.06L14.6334 17.03C11.8034 15.68 9.1534 13.13 7.7434 10.2L9.6934 8.54C9.9634 8.26 10.0434 7.87 9.9334 7.52C9.5634 6.41 9.3734 5.22 9.3734 3.99C9.3734 3.45 8.9234 3 8.3834 3H4.9234C4.3834 3 3.7334 3.24 3.7334 3.99C3.7334 13.28 11.4634 21 20.7434 21C21.4534 21 21.7334 20.37 21.7334 19.82V16.37C21.7334 15.83 21.2834 15.38 20.7434 15.38Z"
        fill="currentColor"
      />
    </g>
    <defs>
      <clipPath id="clip0_288_82">
        <rect
          width="24"
          height="24"
          fill="currentColor"
          transform="translate(0.733398)"
        />
      </clipPath>
    </defs>
  </symbol>
  <svg viewBox="0 0 8.4666669 8.4666669" id="address" fill="currentColor">
    <g id="SVGRepo_bgCarrier" stroke-width="0"></g>
    <g id="SVGRepo_tracerCarrier" stroke-linecap="round" stroke-linejoin="round"></g>
    <g id="SVGRepo_iconCarrier">
      <defs id="defs2"></defs>
      <g id="layer1" transform="translate(0,-288.53332)">
        <path
          d="m 15.996094,0.99609375 c -6.0632836,0 -10.9980445,4.93673065 -10.9980471,11.00000025 -3.8e-6,10.668737 10.3789061,18.779297 10.3789061,18.779297 0.364612,0.290384 0.881482,0.290384 1.246094,0 0,0 10.380882,-8.11056 10.380859,-18.779297 C 27.003893,5.9328244 22.059377,0.99609375 15.996094,0.99609375 Z m 0,6.00195315 c 2.749573,0 5.00585,2.2484784 5.005859,4.9980471 C 21.001971,14.7457 18.745685,17 15.996094,17 c -2.749591,0 -4.998064,-2.2543 -4.998047,-5.003906 9e-6,-2.7495687 2.248474,-4.9980471 4.998047,-4.9980471 z"
          id="path929"
          style="font-style:normal;font-variant:normal;font-weight:normal;font-stretch:normal;font-size:medium;line-height:normal;font-family:sans-serif;font-variant-ligatures:normal;font-variant-position:normal;font-variant-caps:normal;font-variant-numeric:normal;font-variant-alternates:normal;font-feature-settings:normal;text-indent:0;text-align:start;text-decoration:none;text-decoration-line:none;text-decoration-style:solid;letter-spacing:normal;word-spacing:normal;text-transform:none;writing-mode:lr-tb;direction:ltr;text-orientation:mixed;dominant-baseline:auto;baseline-shift:baseline;text-anchor:start;white-space:normal;shape-padding:0;clip-rule:nonzero;display:inline;overflow:visible;visibility:visible;opacity:1;isolation:auto;mix-blend-mode:normal;color-interpolation:sRGB;color-interpolation-filters:linearRGB;solid-opacity:1;vector-effect:none;fill-opacity:1;fill-rule:nonzero;stroke:none;stroke-width:1.99999988;stroke-linecap:round;stroke-linejoin:round;stroke-miterlimit:4;stroke-dasharray:none;stroke-dashoffset:0;stroke-opacity:1;paint-order:stroke fill markers;color-rendering:auto;image-rendering:auto;shape-rendering:auto;text-rendering:auto;enable-background:accumulate"
          transform="matrix(0.26458333,0,0,0.26458333,0,288.53332)"></path>
      </g>
    </g>
  </svg>

  <symbol id="telegram" viewBox="0 0 48 48">
    <g id="SVGRepo_bgCarrier" stroke-width="0"></g>
    <g id="SVGRepo_tracerCarrier" stroke-linecap="round" stroke-linejoin="round"></g>
    <g id="SVGRepo_iconCarrier">
      <path
        d="M41.4193 7.30899C41.4193 7.30899 45.3046 5.79399 44.9808 9.47328C44.8729 10.9883 43.9016 16.2908 43.1461 22.0262L40.5559 39.0159C40.5559 39.0159 40.3401 41.5048 38.3974 41.9377C36.4547 42.3705 33.5408 40.4227 33.0011 39.9898C32.5694 39.6652 24.9068 34.7955 22.2086 32.4148C21.4531 31.7655 20.5897 30.4669 22.3165 28.9519L33.6487 18.1305C34.9438 16.8319 36.2389 13.8019 30.8426 17.4812L15.7331 27.7616C15.7331 27.7616 14.0063 28.8437 10.7686 27.8698L3.75342 25.7055C3.75342 25.7055 1.16321 24.0823 5.58815 22.459C16.3807 17.3729 29.6555 12.1786 41.4193 7.30899Z"
        fill="currentColor"></path>
    </g>
  </symbol>

  <symbol id="linkedin" viewBox="-143 145 512 512">
    <g id="SVGRepo_bgCarrier" stroke-width="0"></g>
    <g id="SVGRepo_tracerCarrier" stroke-linecap="round" stroke-linejoin="round"></g>
    <g id="SVGRepo_iconCarrier">
      <path fill="currentColor" d="M329,145h-432c-22.1,0-40,17.9-40,40v432c0,22.1,17.9,40,40,40h432c22.1,0,40-17.9,40-40V185C369,162.9,351.1,145,329,145z M41.4,508.1H-8.5V348.4h49.9V508.1z M15.1,328.4h-0.4c-18.1,0-29.8-12.2-29.8-27.7c0-15.8,12.1-27.7,30.5-27.7 c18.4,0,29.7,11.9,30.1,27.7C45.6,316.1,33.9,328.4,15.1,328.4z M241,508.1h-56.6v-82.6c0-21.6-8.8-36.4-28.3-36.4 c-14.9,0-23.2,10-27,19.6c-1.4,3.4-1.2,8.2-1.2,13.1v86.3H71.8c0,0,0.7-146.4,0-159.7h56.1v25.1c3.3-11,21.2-26.6,49.8-26.6 c35.5,0,63.3,23,63.3,72.4V508.1z">
      </path>
    </g>
  </symbol>

  <symbol id="github" viewBox="0 0 20 20">
    <g id="SVGRepo_bgCarrier" stroke-width="0"></g>
    <g id="SVGRepo_tracerCarrier" stroke-linecap="round" stroke-linejoin="round"></g>
    <g id="SVGRepo_iconCarrier">
      <g id="Page-1" stroke="none" stroke-width="1" fill="none" fill-rule="evenodd">
        <g id="Dribbble-Light-Preview" transform="translate(-140.000000, -7559.000000)"
          fill="currentColor">
          <g id="icons" transform="translate(56.000000, 160.000000)">
            <path
              d="M94,7399 C99.523,7399 104,7403.59 104,7409.253 C104,7413.782 101.138,7417.624 97.167,7418.981 C96.66,7419.082 96.48,7418.762 96.48,7418.489 C96.48,7418.151 96.492,7417.047 96.492,7415.675 C96.492,7414.719 96.172,7414.095 95.813,7413.777 C98.04,7413.523 100.38,7412.656 100.38,7408.718 C100.38,7407.598 99.992,7406.684 99.35,7405.966 C99.454,7405.707 99.797,7404.664 99.252,7403.252 C99.252,7403.252 98.414,7402.977 96.505,7404.303 C95.706,7404.076 94.85,7403.962 94,7403.958 C93.15,7403.962 92.295,7404.076 91.497,7404.303 C89.586,7402.977 88.746,7403.252 88.746,7403.252 C88.203,7404.664 88.546,7405.707 88.649,7405.966 C88.01,7406.684 87.619,7407.598 87.619,7408.718 C87.619,7412.646 89.954,7413.526 92.175,7413.785 C91.889,7414.041 91.63,7414.493 91.54,7415.156 C90.97,7415.418 89.522,7415.871 88.63,7414.304 C88.63,7414.304 88.101,7413.319 87.097,7413.247 C87.097,7413.247 86.122,7413.234 87.029,7413.87 C87.029,7413.87 87.684,7414.185 88.139,7415.37 C88.139,7415.37 88.726,7417.2 91.508,7416.58 C91.513,7417.437 91.522,7418.245 91.522,7418.489 C91.522,7418.76 91.338,7419.077 90.839,7418.982 C86.865,7417.627 84,7413.783 84,7409.253 C84,7403.59 88.478,7399 94,7399"
              id="github-[#142]"> </path>
          </g>
        </g>
      </g>
    </g>
  </symbol>
</svg>