<svg
  display="none"
  xmlns="http://www.w3.org/2000/svg"
>
  <symbol id="mail" viewBox="0 0 25 24">
    <g clip-path="url(#clip0_288_75)">
      <path
        d="M20.7334 4H4.7334C3.6334 4 2.7434 4.9 2.7434 6L2.7334 18C2.7334 19.1 3.6334 20 4.7334 20H20.7334C21.8334 20 22.7334 19.1 22.7334 18V6C22.7334 4.9 21.8334 4 20.7334 4ZM20.7334 8L12.7334 13L4.7334 8V6L12.7334 11L20.7334 6V8Z"
        fill="white" />
    </g>
    <defs>
      <clipPath id="clip0_288_75">
        <rect width="24" height="24" fill="white" transform="translate(0.733398)" />
      </clipPath>
    </defs>
  </symbol>

  <symbol id="phone" viewBox="0 0 25 24">
    <g clip-path="url(#clip0_288_82)">
      <path
        d="M20.7434 15.38C19.5134 15.38 18.3234 15.18 17.2134 14.82C16.8634 14.7 16.4734 14.79 16.2034 15.06L14.6334 17.03C11.8034 15.68 9.1534 13.13 7.7434 10.2L9.6934 8.54C9.9634 8.26 10.0434 7.87 9.9334 7.52C9.5634 6.41 9.3734 5.22 9.3734 3.99C9.3734 3.45 8.9234 3 8.3834 3H4.9234C4.3834 3 3.7334 3.24 3.7334 3.99C3.7334 13.28 11.4634 21 20.7434 21C21.4534 21 21.7334 20.37 21.7334 19.82V16.37C21.7334 15.83 21.2834 15.38 20.7434 15.38Z"
        fill="currentColor"
      />
    </g>
    <defs>
      <clipPath id="clip0_288_82">
        <rect
          width="24"
          height="24"
          fill="currentColor"
          transform="translate(0.733398)"
        />
      </clipPath>
    </defs>
  </symbol>
  <svg viewBox="0 0 8.4666669 8.4666669" id="address" fill="currentColor">
    <g id="SVGRepo_bgCarrier" stroke-width="0"></g>
    <g id="SVGRepo_tracerCarrier" stroke-linecap="round" stroke-linejoin="round"></g>
    <g id="SVGRepo_iconCarrier">
      <defs id="defs2"></defs>
      <g id="layer1" transform="translate(0,-288.53332)">
        <path
          d="m 15.996094,0.99609375 c -6.0632836,0 -10.9980445,4.93673065 -10.9980471,11.00000025 -3.8e-6,10.668737 10.3789061,18.779297 10.3789061,18.779297 0.364612,0.290384 0.881482,0.290384 1.246094,0 0,0 10.380882,-8.11056 10.380859,-18.779297 C 27.003893,5.9328244 22.059377,0.99609375 15.996094,0.99609375 Z m 0,6.00195315 c 2.749573,0 5.00585,2.2484784 5.005859,4.9980471 C 21.001971,14.7457 18.745685,17 15.996094,17 c -2.749591,0 -4.998064,-2.2543 -4.998047,-5.003906 9e-6,-2.7495687 2.248474,-4.9980471 4.998047,-4.9980471 z"
          id="path929"
          style="font-style:normal;font-variant:normal;font-weight:normal;font-stretch:normal;font-size:medium;line-height:normal;font-family:sans-serif;font-variant-ligatures:normal;font-variant-position:normal;font-variant-caps:normal;font-variant-numeric:normal;font-variant-alternates:normal;font-feature-settings:normal;text-indent:0;text-align:start;text-decoration:none;text-decoration-line:none;text-decoration-style:solid;letter-spacing:normal;word-spacing:normal;text-transform:none;writing-mode:lr-tb;direction:ltr;text-orientation:mixed;dominant-baseline:auto;baseline-shift:baseline;text-anchor:start;white-space:normal;shape-padding:0;clip-rule:nonzero;display:inline;overflow:visible;visibility:visible;opacity:1;isolation:auto;mix-blend-mode:normal;color-interpolation:sRGB;color-interpolation-filters:linearRGB;solid-opacity:1;vector-effect:none;fill-opacity:1;fill-rule:nonzero;stroke:none;stroke-width:1.99999988;stroke-linecap:round;stroke-linejoin:round;stroke-miterlimit:4;stroke-dasharray:none;stroke-dashoffset:0;stroke-opacity:1;paint-order:stroke fill markers;color-rendering:auto;image-rendering:auto;shape-rendering:auto;text-rendering:auto;enable-background:accumulate"
          transform="matrix(0.26458333,0,0,0.26458333,0,288.53332)"></path>
      </g>
    </g>
  </svg>

  <symbol id="telegram" viewBox="0 0 48 48">
    <g id="SVGRepo_bgCarrier" stroke-width="0"></g>
    <g id="SVGRepo_tracerCarrier" stroke-linecap="round" stroke-linejoin="round"></g>
    <g id="SVGRepo_iconCarrier">
      <path
        d="M41.4193 7.30899C41.4193 7.30899 45.3046 5.79399 44.9808 9.47328C44.8729 10.9883 43.9016 16.2908 43.1461 22.0262L40.5559 39.0159C40.5559 39.0159 40.3401 41.5048 38.3974 41.9377C36.4547 42.3705 33.5408 40.4227 33.0011 39.9898C32.5694 39.6652 24.9068 34.7955 22.2086 32.4148C21.4531 31.7655 20.5897 30.4669 22.3165 28.9519L33.6487 18.1305C34.9438 16.8319 36.2389 13.8019 30.8426 17.4812L15.7331 27.7616C15.7331 27.7616 14.0063 28.8437 10.7686 27.8698L3.75342 25.7055C3.75342 25.7055 1.16321 24.0823 5.58815 22.459C16.3807 17.3729 29.6555 12.1786 41.4193 7.30899Z"
        fill="currentColor"></path>
    </g>
  </symbol>

  <symbol id="linkedin" viewBox="-143 145 512 512">
    <g id="SVGRepo_bgCarrier" stroke-width="0"></g>
    <g id="SVGRepo_tracerCarrier" stroke-linecap="round" stroke-linejoin="round"></g>
    <g id="SVGRepo_iconCarrier">
      <path fill="currentColor"
        d="M329,145h-432c-22.1,0-40,17.9-40,40v432c0,22.1,17.9,40,40,40h432c22.1,0,40-17.9,40-40V185C369,162.9,351.1,145,329,145z M41.4,508.1H-8.5V348.4h49.9V508.1z M15.1,328.4h-0.4c-18.1,0-29.8-12.2-29.8-27.7c0-15.8,12.1-27.7,30.5-27.7 c18.4,0,29.7,11.9,30.1,27.7C45.6,316.1,33.9,328.4,15.1,328.4z M241,508.1h-56.6v-82.6c0-21.6-8.8-36.4-28.3-36.4 c-14.9,0-23.2,10-27,19.6c-1.4,3.4-1.2,8.2-1.2,13.1v86.3H71.8c0,0,0.7-146.4,0-159.7h56.1v25.1c3.3-11,21.2-26.6,49.8-26.6 c35.5,0,63.3,23,63.3,72.4V508.1z">
      </path>
    </g>
  </symbol>

  <symbol id="github" viewBox="0 0 20 20">
    <g id="SVGRepo_bgCarrier" stroke-width="0"></g>
    <g id="SVGRepo_tracerCarrier" stroke-linecap="round" stroke-linejoin="round"></g>
    <g id="SVGRepo_iconCarrier">
      <g id="Page-1" stroke="none" stroke-width="1" fill="none" fill-rule="evenodd">
        <g id="Dribbble-Light-Preview" transform="translate(-140.000000, -7559.000000)"
          fill="currentColor">
          <g id="icons" transform="translate(56.000000, 160.000000)">
            <path
              d="M94,7399 C99.523,7399 104,7403.59 104,7409.253 C104,7413.782 101.138,7417.624 97.167,7418.981 C96.66,7419.082 96.48,7418.762 96.48,7418.489 C96.48,7418.151 96.492,7417.047 96.492,7415.675 C96.492,7414.719 96.172,7414.095 95.813,7413.777 C98.04,7413.523 100.38,7412.656 100.38,7408.718 C100.38,7407.598 99.992,7406.684 99.35,7405.966 C99.454,7405.707 99.797,7404.664 99.252,7403.252 C99.252,7403.252 98.414,7402.977 96.505,7404.303 C95.706,7404.076 94.85,7403.962 94,7403.958 C93.15,7403.962 92.295,7404.076 91.497,7404.303 C89.586,7402.977 88.746,7403.252 88.746,7403.252 C88.203,7404.664 88.546,7405.707 88.649,7405.966 C88.01,7406.684 87.619,7407.598 87.619,7408.718 C87.619,7412.646 89.954,7413.526 92.175,7413.785 C91.889,7414.041 91.63,7414.493 91.54,7415.156 C90.97,7415.418 89.522,7415.871 88.63,7414.304 C88.63,7414.304 88.101,7413.319 87.097,7413.247 C87.097,7413.247 86.122,7413.234 87.029,7413.87 C87.029,7413.87 87.684,7414.185 88.139,7415.37 C88.139,7415.37 88.726,7417.2 91.508,7416.58 C91.513,7417.437 91.522,7418.245 91.522,7418.489 C91.522,7418.76 91.338,7419.077 90.839,7418.982 C86.865,7417.627 84,7413.783 84,7409.253 C84,7403.59 88.478,7399 94,7399"
              id="github-[#142]"> </path>
          </g>
        </g>
      </g>
    </g>
  </symbol>

  <symbol id="html" viewBox="0 0 24 24">
    <g id="SVGRepo_bgCarrier" stroke-width="0"></g>
    <g id="SVGRepo_tracerCarrier" stroke-linecap="round" stroke-linejoin="round"></g>
    <g id="SVGRepo_iconCarrier">
      <path
        d="M7.99999 5C7.69206 5 7.4013 5.14187 7.21179 5.38459C7.02228 5.6273 6.95517 5.94379 7.02985 6.24254L8.02985 10.2425C8.14114 10.6877 8.54113 11 8.99999 11H13.8C13.9105 11 14 11.0895 14 11.2V13.5029C14 13.556 13.9789 13.6069 13.9414 13.6444L12.1414 15.4444C12.0633 15.5225 11.9367 15.5225 11.8586 15.4444L9.7071 13.2929C9.31658 12.9024 8.68341 12.9024 8.29289 13.2929C7.90236 13.6834 7.90236 14.3166 8.29289 14.7071L11.2929 17.7071C11.6834 18.0976 12.3166 18.0976 12.7071 17.7071L15.7071 14.7071C15.8946 14.5196 16 14.2652 16 14V10C16 9.44772 15.5523 9 15 9H9.93693C9.84515 9 9.76516 8.93754 9.7429 8.84851L9.3429 7.24851C9.31134 7.12228 9.40681 7 9.53693 7H16C16.5523 7 17 6.55228 17 6C17 5.44772 16.5523 5 16 5H7.99999Z"
        fill="currentColor"></path>
      <path fill-rule="evenodd" clip-rule="evenodd"
        d="M4.30601 1C2.48037 1 1.07798 2.61696 1.33617 4.42426L2.90518 15.4074C3.00667 16.1178 3.35945 16.7683 3.89952 17.2409L10.0245 22.6002C11.1556 23.5899 12.8444 23.5899 13.9755 22.6002L20.1005 17.2409C20.6405 16.7683 20.9933 16.1178 21.0948 15.4074L22.6638 4.42426C22.922 2.61696 21.5196 1 19.694 1H4.30601ZM3.31606 4.14142C3.23 3.53899 3.69746 3 4.30601 3H19.694C20.3025 3 20.77 3.53899 20.6839 4.14142L19.1149 15.1245C19.0811 15.3613 18.9635 15.5782 18.7835 15.7357L12.6585 21.095C12.2815 21.4249 11.7185 21.4249 11.3415 21.095L5.21653 15.7357C5.0365 15.5782 4.91891 15.3613 4.88508 15.1245L3.31606 4.14142Z"
        fill="currentColor"></path>
    </g>
  </symbol>
  <symbol id="css" viewBox="0 0 24 24">
    <g id="SVGRepo_bgCarrier" stroke-width="0"></g>
    <g id="SVGRepo_tracerCarrier" stroke-linecap="round" stroke-linejoin="round"></g>
    <g id="SVGRepo_iconCarrier">
      <path
        d="M8 5C7.44772 5 7 5.44772 7 6C7 6.55228 7.44772 7 8 7H12.2344L8.50386 9.13176C8.11017 9.35672 7.91712 9.81842 8.0335 10.2567C8.14988 10.6949 8.54657 11 9 11H13.8C13.9105 11 14 11.0895 14 11.2V13.5029C14 13.556 13.9789 13.6069 13.9414 13.6444L12.1414 15.4444C12.0633 15.5225 11.9367 15.5225 11.8586 15.4444L9.70711 13.2929C9.31658 12.9024 8.68342 12.9024 8.2929 13.2929C7.90237 13.6834 7.90237 14.3166 8.2929 14.7071L11.2929 17.7071C11.6834 18.0976 12.3166 18.0976 12.7071 17.7071L15.7071 14.7071C15.8946 14.5196 16 14.2652 16 14V10C16 9.44772 15.5523 9 15 9H12.7656L16.4961 6.86824C16.8898 6.64328 17.0829 6.18158 16.9665 5.74333C16.8501 5.30509 16.4534 5 16 5H8Z"
        fill="currentColor"></path>
      <path fill-rule="evenodd" clip-rule="evenodd"
        d="M4.30602 1C2.48038 1 1.07799 2.61696 1.33617 4.42426L2.90519 15.4074C3.00668 16.1178 3.35946 16.7683 3.89953 17.2409L10.0245 22.6002C11.1556 23.5899 12.8444 23.5899 13.9755 22.6002L20.1005 17.2409C20.6405 16.7683 20.9933 16.1178 21.0948 15.4074L22.6638 4.42426C22.922 2.61696 21.5196 1 19.694 1H4.30602ZM3.31607 4.14142C3.23001 3.53899 3.69747 3 4.30602 3H19.694C20.3025 3 20.77 3.53899 20.6839 4.14142L19.1149 15.1245C19.0811 15.3613 18.9635 15.5782 18.7835 15.7357L12.6585 21.095C12.2815 21.4249 11.7185 21.4249 11.3415 21.095L5.21653 15.7357C5.03651 15.5782 4.91892 15.3613 4.88509 15.1245L3.31607 4.14142Z"
        fill="currentColor"></path>
    </g>
  </symbol>
  <symbol id="js" viewBox="0 0 24 24">
    <g id="SVGRepo_bgCarrier" stroke-width="0"></g>
    <g id="SVGRepo_tracerCarrier" stroke-linecap="round" stroke-linejoin="round"></g>
    <g id="SVGRepo_iconCarrier">
      <path
        d="M13 6C13 5.44772 13.4477 5 14 5H17C17.5523 5 18 5.44772 18 6C18 6.55228 17.5523 7 17 7H15.2C15.0895 7 15 7.08954 15 7.2V8.8C15 8.91046 15.0895 9 15.2 9H17C17.5523 9 18 9.44772 18 10V13C18 13.2652 17.8946 13.5196 17.7071 13.7071L14.7071 16.7071C14.3166 17.0976 13.6834 17.0976 13.2929 16.7071C12.9024 16.3166 12.9024 15.6834 13.2929 15.2929L15.9414 12.6444C15.9789 12.6069 16 12.556 16 12.5029V11.2C16 11.0895 15.9105 11 15.8 11H14C13.4477 11 13 10.5523 13 10V6Z"
        fill="currentColor"></path>
      <path
        d="M11 6C11 5.44772 10.5523 5 10 5C9.44771 5 9 5.44772 9 6V13.1029C9 13.2811 8.78457 13.3704 8.65858 13.2444L8.05858 12.6444C8.02107 12.6069 8 12.556 8 12.5029V12C8 11.4477 7.55228 11 7 11C6.44771 11 6 11.4477 6 12V13C6 13.2652 6.10536 13.5196 6.29289 13.7071L9.29289 16.7071C9.57889 16.9931 10.009 17.0787 10.3827 16.9239C10.7564 16.7691 11 16.4045 11 16V6Z"
        fill="currentColor"></path>
      <path fill-rule="evenodd" clip-rule="evenodd"
        d="M1.33617 4.42426C1.07798 2.61696 2.48037 1 4.30602 1H19.694C21.5196 1 22.922 2.61696 22.6638 4.42426L21.0948 15.4074C20.9933 16.1178 20.6405 16.7683 20.1005 17.2409L13.9755 22.6002C12.8444 23.5899 11.1556 23.5899 10.0245 22.6002L3.89952 17.2409C3.35945 16.7683 3.00667 16.1178 2.90519 15.4074L1.33617 4.42426ZM4.30602 3C3.69747 3 3.23001 3.53899 3.31607 4.14142L4.88509 15.1245C4.91892 15.3613 5.03651 15.5782 5.21653 15.7357L11.3415 21.095C11.7185 21.4249 12.2815 21.4249 12.6585 21.095L18.7835 15.7357C18.9635 15.5782 19.0811 15.3613 19.1149 15.1245L20.6839 4.14142C20.77 3.53899 20.3025 3 19.694 3H4.30602Z"
        fill="currentColor"></path>
    </g>
  </symbol>

  <symbol id="react" viewBox="0 0 24 24" fill="currentColor">
    <g id="SVGRepo_bgCarrier" stroke-width="0"></g>
    <g id="SVGRepo_tracerCarrier" stroke-linecap="round" stroke-linejoin="round"></g>
    <g id="SVGRepo_iconCarrier">
      <title>react</title>
      <rect width="24" height="24" fill="none"></rect>
      <path
        d="M12,10.11A1.87,1.87,0,1,1,10.13,12,1.88,1.88,0,0,1,12,10.11M7.37,20c.63.38,2-.2,3.6-1.7a24.22,24.22,0,0,1-1.51-1.9A22.7,22.7,0,0,1,7.06,16c-.51,2.14-.32,3.61.31,4m.71-5.74-.29-.51a7.91,7.91,0,0,0-.29.86c.27.06.57.11.88.16l-.3-.51m6.54-.76.81-1.5-.81-1.5c-.3-.53-.62-1-.91-1.47C13.17,9,12.6,9,12,9s-1.17,0-1.71,0c-.29.47-.61.94-.91,1.47L8.57,12l.81,1.5c.3.53.62,1,.91,1.47.54,0,1.11,0,1.71,0s1.17,0,1.71,0c.29-.47.61-.94.91-1.47M12,6.78c-.19.22-.39.45-.59.72h1.18c-.2-.27-.4-.5-.59-.72m0,10.44c.19-.22.39-.45.59-.72H11.41c.2.27.4.5.59.72M16.62,4c-.62-.38-2,.2-3.59,1.7a24.22,24.22,0,0,1,1.51,1.9,22.7,22.7,0,0,1,2.4.36c.51-2.14.32-3.61-.32-4m-.7,5.74.29.51a7.91,7.91,0,0,0,.29-.86c-.27-.06-.57-.11-.88-.16l.3.51m1.45-7c1.47.84,1.63,3.05,1,5.63,2.54.75,4.37,2,4.37,3.68s-1.83,2.93-4.37,3.68c.62,2.58.46,4.79-1,5.63s-3.45-.12-5.37-1.95c-1.92,1.83-3.91,2.79-5.38,1.95s-1.62-3-1-5.63c-2.54-.75-4.37-2-4.37-3.68S3.08,9.07,5.62,8.32c-.62-2.58-.46-4.79,1-5.63s3.46.12,5.38,1.95c1.92-1.83,3.91-2.79,5.37-1.95M17.08,12A22.51,22.51,0,0,1,18,14.26c2.1-.63,3.28-1.53,3.28-2.26S20.07,10.37,18,9.74A22.51,22.51,0,0,1,17.08,12M6.92,12A22.51,22.51,0,0,1,6,9.74c-2.1.63-3.28,1.53-3.28,2.26S3.93,13.63,6,14.26A22.51,22.51,0,0,1,6.92,12m9,2.26-.3.51c.31,0,.61-.1.88-.16a7.91,7.91,0,0,0-.29-.86l-.29.51M13,18.3c1.59,1.5,3,2.08,3.59,1.7s.83-1.82.32-4a22.7,22.7,0,0,1-2.4.36A24.22,24.22,0,0,1,13,18.3M8.08,9.74l.3-.51c-.31,0-.61.1-.88.16a7.91,7.91,0,0,0,.29.86l.29-.51M11,5.7C9.38,4.2,8,3.62,7.37,4s-.82,1.82-.31,4a22.7,22.7,0,0,1,2.4-.36A24.22,24.22,0,0,1,11,5.7Z"></path>
    </g>
  </symbol>
  <symbol id="nextjs" viewBox="0 0 24 24" fill="currentColor">
    <g id="SVGRepo_bgCarrier" stroke-width="0"></g>
    <g id="SVGRepo_tracerCarrier" stroke-linecap="round" stroke-linejoin="round"></g>
    <g id="SVGRepo_iconCarrier">
      <g clip-path="url(#clip0)">
        <path
          d="M11.2141 0.00645944C11.1625 0.0111515 10.9982 0.0275738 10.8504 0.039304C7.44164 0.346635 4.24868 2.18593 2.22639 5.01291C1.10029 6.58476 0.380059 8.36775 0.107918 10.2563C0.0117302 10.9156 0 11.1103 0 12.0041C0 12.898 0.0117302 13.0927 0.107918 13.7519C0.760117 18.2587 3.96716 22.0452 8.31672 23.4481C9.0956 23.6991 9.91672 23.8704 10.8504 23.9736C11.2141 24.0135 12.7859 24.0135 13.1496 23.9736C14.7613 23.7953 16.1267 23.3965 17.4733 22.7091C17.6798 22.6035 17.7196 22.5754 17.6915 22.5519C17.6727 22.5378 16.793 21.3578 15.7372 19.9314L13.8182 17.339L11.4135 13.7801C10.0903 11.8235 9.00176 10.2235 8.99238 10.2235C8.98299 10.2211 8.97361 11.8024 8.96891 13.7331C8.96188 17.1138 8.95953 17.2499 8.9173 17.3296C8.85631 17.4446 8.80938 17.4915 8.71085 17.5431C8.63578 17.5807 8.57009 17.5877 8.21584 17.5877H7.80997L7.70205 17.5197C7.63167 17.4751 7.58006 17.4164 7.54487 17.3484L7.4956 17.2428L7.50029 12.539L7.50733 7.83285L7.58006 7.74136C7.6176 7.69209 7.69736 7.62875 7.75367 7.59825C7.84985 7.55133 7.88739 7.54664 8.29325 7.54664C8.77185 7.54664 8.85161 7.5654 8.97595 7.70147C9.01114 7.73901 10.3132 9.7003 11.871 12.0628C13.4287 14.4252 15.5589 17.651 16.6053 19.2346L18.5056 22.1132L18.6018 22.0499C19.4534 21.4962 20.3543 20.7079 21.0674 19.8868C22.5853 18.1437 23.5636 16.0182 23.8921 13.7519C23.9883 13.0927 24 12.898 24 12.0041C24 11.1103 23.9883 10.9156 23.8921 10.2563C23.2399 5.74957 20.0328 1.96306 15.6833 0.560125C14.9161 0.311445 14.0997 0.140184 13.1848 0.036958C12.9595 0.0134976 11.4088 -0.0123089 11.2141 0.00645944ZM16.1267 7.26511C16.2393 7.32142 16.3308 7.42933 16.3636 7.54194C16.3824 7.60294 16.3871 8.90734 16.3824 11.8469L16.3754 16.0651L15.6317 14.9249L14.8856 13.7848V10.7185C14.8856 8.73608 14.895 7.62171 14.9091 7.56775C14.9466 7.43637 15.0287 7.33315 15.1413 7.27215C15.2375 7.22288 15.2727 7.21819 15.6411 7.21819C15.9883 7.21819 16.0493 7.22288 16.1267 7.26511Z"
          fill="currentColor"></path>
      </g>
      <defs>
        <clipPath id="clip0">
          <rect width="24" height="24" fill="white"></rect>
        </clipPath>
      </defs>
    </g>
  </symbol>
  <symbol id="restapi" viewBox="0 0 20 20" fill="currentColor">
    <g id="SVGRepo_bgCarrier" stroke-width="0"></g>
    <g id="SVGRepo_tracerCarrier" stroke-linecap="round" stroke-linejoin="round"></g>
    <g id="SVGRepo_iconCarrier">
      <rect x="0" fill="none" width="20" height="20"></rect>
      <g>
        <path
          d="M16 13c-1.3 0-2.4.8-2.8 2H9c0-.7-.2-1.3-.5-1.8l7.1-7.3c.3 0 .6.1.9.1C17.9 6 19 4.9 19 3.5S17.9 1 16.5 1 14 2.1 14 3.5c0 .3.1.7.2 1l-7 7.2c-.6-.5-1.4-.7-2.2-.7V6.8C6.2 6.4 7 5.3 7 4c0-1.7-1.3-3-3-3S1 2.3 1 4c0 1.3.8 2.4 2 2.8v4.7c-1.2.7-2 2-2 3.4 0 2.2 1.8 4 4 4 1.5 0 2.8-.8 3.4-2h4.7c.4 1.1 1.5 2 2.8 2 1.6 0 3-1.3 3-3C19 14.3 17.6 13 16 13z"></path>
      </g>
    </g>
  </symbol>

  <symbol id="tailwind" viewBox="0 0 15 15">
    <g id="SVGRepo_bgCarrier" stroke-width="0"></g>
    <g id="SVGRepo_tracerCarrier" stroke-linecap="round" stroke-linejoin="round"></g>
    <g id="SVGRepo_iconCarrier">
      <path
        d="M7.50006 2.5C6.47409 2.5 5.59203 2.77691 4.89966 3.37037C4.21227 3.95956 3.76259 4.81729 3.51314 5.88638C3.45869 6.1197 3.57742 6.35885 3.79619 6.45654C4.01496 6.55423 4.27228 6.483 4.40967 6.28672C4.7263 5.8344 5.04244 5.56261 5.3462 5.42313C5.64038 5.28805 5.95748 5.26068 6.32069 5.35797C6.68723 5.45615 6.97097 5.74369 7.41643 6.22816L7.43082 6.24382C7.76661 6.60905 8.17623 7.0546 8.73649 7.40028C9.31785 7.75898 10.0413 7.99999 11.0001 7.99999C12.026 7.99999 12.9081 7.72307 13.6005 7.12962C14.2878 6.54043 14.7375 5.6827 14.987 4.61361C15.0414 4.38029 14.9227 4.14114 14.7039 4.04345C14.4852 3.94576 14.2278 4.01698 14.0904 4.21326C13.7738 4.66559 13.4577 4.93737 13.1539 5.07686C12.8597 5.21194 12.5426 5.23931 12.1794 5.14202C11.8129 5.04384 11.5291 4.7563 11.0837 4.27182L11.0693 4.25616C10.7335 3.89093 10.3239 3.44538 9.76362 3.09971C9.18227 2.74101 8.45883 2.5 7.50006 2.5Z"
        fill="currentColor"></path>
      <path
        d="M4.00006 6.99999C2.97409 6.99999 2.09203 7.2769 1.39966 7.87036C0.712271 8.45955 0.262592 9.31727 0.0131365 10.3864C-0.0413057 10.6197 0.0774162 10.8588 0.296186 10.9565C0.514956 11.0542 0.772276 10.983 0.909673 10.7867C1.2263 10.3344 1.54244 10.0626 1.8462 9.92312C2.14038 9.78804 2.45747 9.76067 2.82069 9.85796C3.18723 9.95614 3.47097 10.2437 3.91643 10.7282L3.93082 10.7438C4.2666 11.109 4.67624 11.5546 5.23649 11.9003C5.81785 12.259 6.54128 12.5 7.50006 12.5C8.52602 12.5 9.40808 12.2231 10.1005 11.6296C10.7878 11.0404 11.2375 10.1827 11.487 9.1136C11.5414 8.88027 11.4227 8.64113 11.2039 8.54343C10.9852 8.44574 10.7278 8.51697 10.5904 8.71325C10.2738 9.16558 9.95768 9.43736 9.65391 9.57684C9.35974 9.71192 9.04264 9.7393 8.67942 9.64201C8.31289 9.54383 8.02915 9.25628 7.58369 8.77181L7.56929 8.75615C7.23351 8.39092 6.82388 7.94537 6.26362 7.59969C5.68227 7.241 4.95883 6.99999 4.00006 6.99999Z"
        fill="currentColor"></path>
    </g>
  </symbol>
  <symbol id="graphql" viewBox="-1.5 0 24 24" fill="currentColor">
    <g id="SVGRepo_bgCarrier" stroke-width="0"></g>
    <g id="SVGRepo_tracerCarrier" stroke-linecap="round" stroke-linejoin="round"></g>
    <g id="SVGRepo_iconCarrier">
      <path
        d="m12.731 2.751 4.935 2.849c.39-.41.94-.664 1.549-.664 1.181 0 2.138.957 2.138 2.138 0 1.001-.688 1.842-1.617 2.074l-.015.003v5.7c.949.233 1.642 1.076 1.642 2.081 0 1.182-.958 2.14-2.14 2.14-.637 0-1.208-.278-1.6-.719l-.002-.002-4.905 2.832c.069.202.109.434.109.675 0 1.182-.958 2.14-2.14 2.14s-2.14-.958-2.14-2.14c0-.216.032-.425.092-.621l-.004.015-4.941-2.844c-.39.407-.939.66-1.546.66-1.182 0-2.14-.958-2.14-2.14 0-1.002.689-1.844 1.619-2.076l.015-.003v-5.699c-.951-.231-1.646-1.076-1.646-2.082 0-1.182.958-2.14 2.14-2.14.396 0 .768.108 1.086.296l-.01-.005c.184.106.342.231.479.376l.001.001 4.938-2.85c-.056-.182-.088-.391-.088-.608 0-1.181.958-2.139 2.139-2.139s2.139.958 2.139 2.139c0 .219-.033.43-.094.629l.004-.015zm-.515.877c-.019.021-.037.039-.057.057l-.001.001 6.461 11.19c.026-.009.056-.016.082-.023v-5.707c-.938-.238-1.621-1.076-1.621-2.072 0-.183.023-.361.066-.531l-.003.015c.006-.024.012-.049.019-.072zm-3.015.059-.06-.06-4.946 2.852c.053.177.084.381.084.592 0 .969-.645 1.787-1.53 2.049l-.015.004-.076.021v5.708l.084.023 6.461-11.19zm2.076.507c-.179.053-.384.084-.596.084s-.417-.031-.611-.088l.015.004-6.46 11.189c.286.276.496.629.597 1.026l.003.015h12.911c.102-.413.313-.768.599-1.043l.001-.001-6.456-11.186zm.986 16.227 4.917-2.838c-.015-.047-.027-.094-.038-.142h-12.92l-.021.083 4.939 2.852c.39-.403.936-.653 1.54-.653.626 0 1.189.268 1.581.696l.001.002z"></path>
    </g>
  </symbol>
  <symbol id="git" viewBox="0 0 24 24">
    <g id="SVGRepo_bgCarrier" stroke-width="0"></g>
    <g id="SVGRepo_tracerCarrier" stroke-linecap="round" stroke-linejoin="round"></g>
    <g id="SVGRepo_iconCarrier">
      <path fill-rule="evenodd" clip-rule="evenodd"
        d="M13.4142 3.82843C12.6332 3.04738 11.3668 3.04738 10.5858 3.82843L9.91421 4.5L11.482 6.06774C11.6472 6.02356 11.8208 6 12 6C13.1046 6 14 6.89543 14 8C14 8.17916 13.9764 8.35282 13.9323 8.51804L15.982 10.5677C16.1472 10.5236 16.3208 10.5 16.5 10.5C17.6046 10.5 18.5 11.3954 18.5 12.5C18.5 13.6046 17.6046 14.5 16.5 14.5C15.3954 14.5 14.5 13.6046 14.5 12.5C14.5 12.3208 14.5236 12.1472 14.5677 11.982L13 10.4142V15.2676C13.5978 15.6134 14 16.2597 14 17C14 18.1046 13.1046 19 12 19C10.8954 19 10 18.1046 10 17C10 16.2597 10.4022 15.6134 11 15.2676V9.73244C10.4022 9.38663 10 8.74028 10 8C10 7.82084 10.0236 7.64718 10.0677 7.48196L8.5 5.91421L3.82843 10.5858C3.04738 11.3668 3.04738 12.6332 3.82843 13.4142L10.5858 20.1716C11.3668 20.9526 12.6332 20.9526 13.4142 20.1716L20.1716 13.4142C20.9526 12.6332 20.9526 11.3668 20.1716 10.5858L13.4142 3.82843ZM9.17157 2.41421C10.7337 0.852115 13.2663 0.852119 14.8284 2.41422L21.5858 9.17157C23.1479 10.7337 23.1479 13.2663 21.5858 14.8284L14.8284 21.5858C13.2663 23.1479 10.7337 23.1479 9.17157 21.5858L2.41421 14.8284C0.852115 13.2663 0.852119 10.7337 2.41422 9.17157L9.17157 2.41421Z"
        fill="currentColor"></path>
    </g>
  </symbol>

  <symbol id="rsschool" viewBox="0 0 80 29">
    <path
      d="M41.2862 9.10523L45.0447 8.86509C45.1304 9.4725 45.2876 9.92452 45.5449 10.2494C45.9593 10.7579 46.5309 11.0122 47.2883 11.0122C47.8457 11.0122 48.2887 10.8851 48.5888 10.6167C48.8746 10.4048 49.0461 10.0658 49.0461 9.71263C49.0461 9.37362 48.8889 9.04872 48.6174 8.83684C48.3316 8.58258 47.6599 8.32832 46.6024 8.1023C44.8732 7.72091 43.6299 7.21239 42.9011 6.56261C42.1722 5.9552 41.7578 5.06528 41.7864 4.11886C41.7864 3.46908 41.9864 2.8193 42.358 2.28253C42.7867 1.67512 43.3726 1.19485 44.0729 0.926463C44.8303 0.601572 45.8878 0.432064 47.2169 0.432064C48.8461 0.432064 50.0894 0.728703 50.9468 1.33611C51.8043 1.92939 52.3187 2.88993 52.4759 4.20362L48.7603 4.4155C48.6603 3.85048 48.4602 3.44083 48.1315 3.17244C47.8028 2.90406 47.3741 2.77693 46.8168 2.77693C46.3594 2.77693 46.0165 2.87581 45.7878 3.05944C45.5734 3.22895 45.4305 3.48321 45.4448 3.76572C45.4448 3.97761 45.5592 4.17537 45.7306 4.3025C45.9164 4.47201 46.3594 4.62739 47.0597 4.76865C48.7889 5.13591 50.0179 5.50318 50.7753 5.88457C51.5327 6.26597 52.0758 6.73211 52.4045 7.28301C52.7475 7.84804 52.919 8.49782 52.9047 9.16173C52.9047 9.95277 52.676 10.7438 52.2187 11.4077C51.7471 12.0999 51.0897 12.6366 50.318 12.9615C49.5034 13.3147 48.4745 13.4983 47.2455 13.4983C45.0733 13.4983 43.5727 13.0887 42.7296 12.2553C41.8864 11.4218 41.3862 10.3765 41.2862 9.10523ZM1.40033 13.2864V0.658075H7.98842C9.20315 0.658075 10.1463 0.756955 10.7894 0.96884C11.4182 1.1666 11.9756 1.57624 12.3471 2.12714C12.7616 2.73455 12.9616 3.44083 12.9474 4.17537C12.9902 5.41843 12.3471 6.60498 11.2467 7.22651C10.818 7.46665 10.3464 7.63616 9.86053 7.72091C10.2178 7.81979 10.5751 7.9893 10.8895 8.18706C11.1324 8.38482 11.3325 8.61083 11.5183 8.85096C11.7326 9.0911 11.9184 9.35949 12.0756 9.642L13.9906 13.3006H9.50326L7.38821 9.41599C7.11668 8.92159 6.88802 8.5967 6.67366 8.44132C6.38784 8.24356 6.04486 8.14468 5.70188 8.14468H5.3589V13.2723H1.40033V13.2864ZM5.3589 5.77157H7.03093C7.38821 5.74332 7.73119 5.68681 8.07417 5.60206C8.3314 5.55968 8.56006 5.41843 8.71726 5.20654C9.10311 4.69802 9.04595 3.97761 8.57435 3.53971C8.31711 3.32783 7.81693 3.21482 7.10239 3.21482H5.3589V5.77157ZM0.5 24.1067L4.2585 23.8666C4.34425 24.474 4.50145 24.926 4.75868 25.2509C5.15883 25.7594 5.74475 26.0278 6.50217 26.0278C7.05951 26.0278 7.50253 25.9007 7.80264 25.6323C8.08846 25.4063 8.25995 25.0814 8.25995 24.7282C8.25995 24.3892 8.10275 24.0643 7.83122 23.8524C7.5454 23.5982 6.87373 23.3439 5.80192 23.1179C4.07272 22.7365 2.82941 22.228 2.10058 21.5782C1.37174 20.9708 0.957308 20.0809 0.98589 19.1345C0.98589 18.4847 1.18596 17.8349 1.55753 17.2981C1.98625 16.6907 2.57218 16.2104 3.27243 15.9421C4.02985 15.6172 5.08737 15.4477 6.41643 15.4477C8.04559 15.4477 9.28889 15.7443 10.1463 16.3517C11.0038 16.9591 11.504 17.9055 11.6612 19.2192L7.94555 19.4311C7.84551 18.8661 7.64544 18.4564 7.31675 18.188C7.00235 17.9196 6.55933 17.7925 6.00199 17.8066C5.54468 17.8066 5.2017 17.9055 4.97305 18.1033C4.74439 18.2728 4.61577 18.527 4.63006 18.8096C4.63006 19.0214 4.74439 19.2192 4.91588 19.3463C5.10166 19.5158 5.54468 19.6712 6.24494 19.8125C7.97413 20.1798 9.20315 20.547 9.96056 20.9284C10.718 21.3098 11.261 21.776 11.5897 22.3269C11.9327 22.8919 12.1042 23.5417 12.1042 24.1914C12.1042 24.9825 11.8613 25.7594 11.4182 26.4233C10.9466 27.1155 10.2893 27.6522 9.51755 27.9771C8.70297 28.3303 7.67402 28.5139 6.44501 28.5139C4.27279 28.5139 2.77225 28.1043 1.92909 27.2708C1.08593 26.4233 0.614327 25.378 0.5 24.1067Z"
      fill="currentColor"></path>
    <path
      d="M19.5069 23.1178L22.9653 24.149C22.7795 25.0107 22.3937 25.83 21.8649 26.5504C21.379 27.186 20.7359 27.6804 20.0071 28.0053C19.264 28.3302 18.3208 28.4997 17.1775 28.4997C15.7913 28.4997 14.648 28.302 13.7763 27.9064C12.8902 27.5109 12.1328 26.8046 11.4897 25.8017C10.8466 24.7988 10.5322 23.5134 10.5322 21.9454C10.5322 19.8548 11.0896 18.2445 12.2185 17.1286C13.3475 16.0126 14.9338 15.4476 16.9917 15.4476C18.6066 15.4476 19.8642 15.7725 20.7931 16.4081C21.7077 17.0579 22.3937 18.0467 22.851 19.3745L19.364 20.1373C19.2782 19.8407 19.1496 19.544 18.9781 19.2898C18.7638 18.9931 18.4922 18.7671 18.1636 18.5976C17.8349 18.4281 17.4633 18.3575 17.0917 18.3575C16.1914 18.3575 15.5055 18.7106 15.0339 19.431C14.6766 19.9537 14.4908 20.7871 14.4908 21.9172C14.4908 23.3156 14.7052 24.2761 15.1339 24.7988C15.5626 25.3214 16.1628 25.5757 16.9488 25.5757C17.7062 25.5757 18.2779 25.3638 18.6637 24.9542C19.0496 24.5163 19.3354 23.9089 19.5069 23.1178ZM27.5813 15.6595H31.5255V20.0808H35.8414V15.6595H39.8143V28.2878H35.8414V23.1743H31.5255V28.2878H27.5813V15.6595Z"
      fill="currentColor"></path>
    <path
      d="M39.2712 21.9738C39.2712 19.9114 39.8571 18.3011 41.0147 17.1569C42.1722 16.0127 43.8014 15.4336 45.8736 15.4336C48.0029 15.4336 49.6321 15.9986 50.7896 17.1287C51.9472 18.2587 52.5188 19.8408 52.5188 21.8749C52.5188 23.3581 52.2616 24.5588 51.7614 25.5052C51.2755 26.4375 50.5181 27.2003 49.5892 27.7088C48.6317 28.2314 47.4456 28.4998 46.0308 28.4998C44.5874 28.4998 43.4013 28.2738 42.4581 27.8218C41.4863 27.3415 40.686 26.5929 40.1572 25.6747C39.5713 24.6859 39.2712 23.457 39.2712 21.9738ZM43.2155 21.9879C43.2155 23.2592 43.4584 24.1774 43.93 24.7424C44.4016 25.2933 45.059 25.5758 45.8879 25.5758C46.731 25.5758 47.3884 25.3074 47.86 24.7565C48.3316 24.2056 48.5603 23.231 48.5603 21.8184C48.5603 20.6318 48.3173 19.756 47.8314 19.2193C47.3455 18.6684 46.6882 18.4 45.8593 18.4C45.1305 18.3717 44.4302 18.6825 43.9443 19.2334C43.4584 19.7843 43.2155 20.7025 43.2155 21.9879ZM56.5632 21.9738C56.5632 19.9114 57.1491 18.3011 58.3067 17.1569C59.4642 16.0127 61.0934 15.4336 63.1656 15.4336C65.2949 15.4336 66.9383 15.9986 68.0816 17.1287C69.2249 18.2587 69.8108 19.8408 69.8108 21.8749C69.8108 23.3581 69.5536 24.5588 69.0534 25.5052C68.5675 26.4375 67.8101 27.2003 66.8812 27.7088C65.9237 28.2314 64.7376 28.4998 63.3228 28.4998C61.8794 28.4998 60.6932 28.2738 59.75 27.8218C58.7782 27.3415 57.978 26.5929 57.4492 25.6747C56.8633 24.6859 56.5632 23.457 56.5632 21.9738ZM60.5074 21.9879C60.5074 23.2592 60.7504 24.1774 61.222 24.7424C61.6936 25.2933 62.351 25.5758 63.1798 25.5758C64.023 25.5758 64.6804 25.3074 65.152 24.7565C65.6236 24.2056 65.8522 23.231 65.8522 21.8184C65.8522 20.6318 65.6093 19.756 65.1234 19.2193C64.6375 18.6684 63.9801 18.4 63.1513 18.4C62.4224 18.3717 61.7079 18.6825 61.2363 19.2334C60.7504 19.7843 60.5074 20.7025 60.5074 21.9879Z"
      fill="currentColor"></path>
    <path d="M73.3407 15.6594V25.1802H79.5V28.2878H69.3821V15.6594H73.3407Z" fill="currentColor"></path>
    <path fill-rule="evenodd" clip-rule="evenodd"
      d="M56.7449 4.03879C53.0602 6.78342 52.187 11.1981 54.2055 13.8456C56.2239 16.4931 60.7579 16.8802 64.4426 14.1355C68.1273 11.3909 69.0004 6.97625 66.982 4.32874C64.9635 1.68124 60.4296 1.29416 56.7449 4.03879ZM52.6015 15.0403C49.699 11.2331 51.2749 5.6195 55.5323 2.4483C59.7897 -0.722899 65.6834 -0.673156 68.5859 3.13402C71.4885 6.94119 69.9125 12.5548 65.6552 15.726C61.3978 18.8972 55.5041 18.8475 52.6015 15.0403Z"
      fill="currentColor"></path>
    <path
      d="M56.5774 8.15874L58.0065 7.16995L59.7643 9.64194C60.0644 10.0375 60.2931 10.4612 60.4646 10.9274C60.5646 11.2805 60.536 11.6619 60.3931 12.0009C60.2073 12.4247 59.9072 12.7778 59.5071 13.0321C59.0355 13.357 58.6353 13.5406 58.2924 13.5971C57.9637 13.6536 57.6207 13.5971 57.3063 13.4559C56.9633 13.2864 56.6632 13.0462 56.4345 12.7355L57.6636 11.6054C57.7636 11.7608 57.8922 11.902 58.0351 12.015C58.1352 12.0857 58.2495 12.1281 58.3781 12.1281C58.4781 12.1281 58.5782 12.0857 58.6496 12.0292C58.7925 11.9444 58.8926 11.7749 58.8783 11.6054C58.8354 11.3653 58.7354 11.1251 58.5782 10.9415L56.5774 8.15874ZM60.8647 9.72669L62.1652 8.70964C62.3081 8.87915 62.4939 9.00628 62.6939 9.07691C62.9798 9.16166 63.2799 9.10516 63.5228 8.92153C63.6943 8.80852 63.8372 8.65314 63.8944 8.45538C63.9801 8.20112 63.8372 7.91861 63.58 7.83385C63.5371 7.81973 63.4942 7.8056 63.4514 7.8056C63.2799 7.79148 62.9798 7.8621 62.5367 8.04574C61.8079 8.34238 61.2363 8.45538 60.8075 8.413C60.3931 8.37063 60.0073 8.15874 59.7786 7.8056C59.6071 7.56546 59.5214 7.28295 59.5071 7.00044C59.5071 6.67555 59.5928 6.35066 59.7786 6.08227C60.0501 5.70088 60.3788 5.37599 60.779 5.12172C61.3792 4.71208 61.9079 4.51432 62.3652 4.51432C62.8226 4.51432 63.2513 4.7262 63.6514 5.1641L62.3652 6.16702C62.108 5.84213 61.6221 5.7715 61.2934 6.02577L61.2506 6.06814C61.1077 6.1529 61.0076 6.28003 60.9505 6.43541C60.9076 6.54842 60.9362 6.67555 61.0076 6.77443C61.0648 6.84506 61.1505 6.90156 61.2506 6.90156C61.3649 6.91568 61.565 6.85918 61.8508 6.73205C62.5653 6.43541 63.1084 6.2659 63.4799 6.2094C63.7943 6.1529 64.123 6.18115 64.4231 6.30828C64.6947 6.42129 64.9233 6.61904 65.0805 6.85918C65.2806 7.14169 65.3949 7.48071 65.4092 7.83385C65.4235 8.20112 65.3235 8.55426 65.1234 8.86503C64.8662 9.24642 64.5375 9.57131 64.1516 9.82557C63.3656 10.3623 62.7225 10.5884 62.208 10.5036C61.6507 10.4188 61.1934 10.1363 60.8647 9.72669Z"
      fill="currentColor"></path>
  </symbol>
</svg>